<svg height="511pt" viewBox="-25 1 511 511.99921" width="511pt" xmlns="http://www.w3.org/2000/svg"><path d="m426.652344 321.355469c38.566406-27.957031 46.375-82.265625 17.25-119.953125 17.324218-44.371094-5.464844-94.277344-50.34375-110.238282-9.410156-46.691406-55.570313-76.355468-101.949219-65.519531-33.160156-34.191406-88.03125-34.191406-121.191406 0-46.382813-10.835937-92.539063 18.828125-101.949219 65.519531-44.878906 15.960938-67.671875 65.867188-50.34375 110.238282-29.125 37.6875-21.316406 91.996094 17.25 119.953125-4.125 47.453125 31.804688 88.917969 79.359375 91.585937 22.183594 42.152344 74.828125 57.609375 116.28125 34.144532 41.449219 23.464843 94.09375 8.007812 116.277344-34.144532 47.554687-2.667968 83.484375-44.132812 79.359375-91.585937zm0 0" fill="#58b78c"/><path d="m145.636719 412.941406c-47.554688-2.667968-83.484375-44.132812-79.359375-91.585937-38.566406-27.957031-46.371094-82.265625-17.246094-119.953125-17.328125-44.371094 5.464844-94.277344 50.34375-110.238282 7.019531-34.828124 34.480469-60.175781 67.230469-66.316406-45.074219-8.394531-88.984375 20.902344-98.136719 66.316406-44.878906 15.960938-67.671875 65.867188-50.34375 110.238282-29.125 37.6875-21.316406 91.996094 17.246094 119.953125-4.125 47.453125 31.804687 88.917969 79.363281 91.585937 17.707031 33.644532 54.820313 50.257813 90.15625 43.667969-24.464844-4.566406-46.71875-19.855469-59.253906-43.667969zm0 0" fill="#46926f"/><path d="m92.546875 383.242188h276.933594v-201.757813l-138.46875-87.191406-138.464844 96.316406zm0 0" fill="#fadc60"/><path d="m92.546875 190.609375v55.484375c4.257813-.980469 8.300781-2.785156 11.933594-5.363281l126.53125-89.90625 126.535156 89.90625c3.632813 2.578125 7.671875 4.382812 11.933594 5.359375v-64.605469l-138.46875-87.191406zm0 0" fill="#f2c42c"/><g fill="#3a484a"><path d="m176.265625 252.457031h109.492187v130.785157h-109.492187zm0 0"/><path d="m168.390625 224.042969c-4.269531 0-7.726563-3.457031-7.726563-7.726563v-11.332031c0-4.265625 3.457032-7.726563 7.726563-7.726563 4.265625 0 7.726563 3.460938 7.726563 7.726563v11.332031c0 4.269532-3.460938 7.726563-7.726563 7.726563zm0 0"/><path d="m293.636719 224.042969c-4.269531 0-7.726563-3.457031-7.726563-7.726563v-11.332031c0-4.265625 3.457032-7.726563 7.726563-7.726563 4.265625 0 7.726562 3.460938 7.726562 7.726563v11.332031c0 4.269532-3.460937 7.726563-7.726562 7.726563zm0 0"/><path d="m231.011719 230.09375c-8.253907 0-16.007813-3.457031-21.273438-9.480469-2.808593-3.214843-2.476562-8.09375.734375-10.902343 3.214844-2.808594 8.09375-2.480469 10.902344.734374 2.332031 2.664063 5.84375 4.195313 9.636719 4.195313 3.796875 0 7.308593-1.53125 9.636719-4.195313 2.8125-3.214843 7.691406-3.542968 10.902343-.734374 3.214844 2.808593 3.542969 7.691406.734375 10.902343-5.265625 6.023438-13.015625 9.480469-21.273437 9.480469zm0 0"/></g><path d="m69.773438 411.628906s64.25 35.820313 64.25 100.371094h193.980468c0-64.550781 64.246094-100.371094 64.246094-100.371094l-161.238281-31.089844zm0 0" fill="#c86d5c"/><path d="m69.773438 411.628906s19.167968 10.6875 36.566406 30.90625h249.347656c17.398438-20.21875 36.566406-30.90625 36.566406-30.90625l-161.242187-31.089844zm0 0" fill="#ad4f3d"/><path d="m427.734375 362.964844h-393.445313c-6.8125 0-12.335937 5.523437-12.335937 12.335937v23.988281c0 6.816407 5.523437 12.339844 12.335937 12.339844h393.445313c6.816406 0 12.339844-5.523437 12.339844-12.339844v-23.988281c0-6.8125-5.523438-12.335937-12.339844-12.335937zm0 0" fill="#fd6f71"/><path d="m401.777344 178.476562-154.617188-109.855468c-9.667968-6.871094-22.625-6.871094-32.296875 0l-154.613281 109.855468c-5.878906 4.175782-7.257812 12.324219-3.082031 18.203126l17.175781 24.171874c4.175781 5.878907 12.328125 7.257813 18.203125 3.082032l138.46875-98.386719 138.464844 98.386719c5.878906 4.171875 14.027343 2.796875 18.203125-3.082032l17.175781-24.171874c4.171875-5.878907 2.792969-14.027344-3.082031-18.203126zm0 0" fill="#fd6f71"/></svg>